<?xml version="1.0" encoding="UTF-8" standalone="no"?>
<!-- Generator: Adobe Illustrator 19.0.0, SVG Export Plug-In . SVG Version: 6.00 Build 0)  -->

<svg
   xmlns:dc="http://purl.org/dc/elements/1.1/"
   xmlns:cc="http://creativecommons.org/ns#"
   xmlns:rdf="http://www.w3.org/1999/02/22-rdf-syntax-ns#"
   xmlns:svg="http://www.w3.org/2000/svg"
   xmlns="http://www.w3.org/2000/svg"
   xmlns:sodipodi="http://sodipodi.sourceforge.net/DTD/sodipodi-0.dtd"
   xmlns:inkscape="http://www.inkscape.org/namespaces/inkscape"
   version="1.1"
   id="Capa_1"
   x="0px"
   y="0px"
   viewBox="0 0 512.001 512.001"
   style="enable-background:new 0 0 512.001 512.001;"
   xml:space="preserve"
   sodipodi:docname="774832.svg"
   inkscape:version="0.92.4 (5da689c313, 2019-01-14)"><metadata
   id="metadata3975"><rdf:RDF><cc:Work
       rdf:about=""><dc:format>image/svg+xml</dc:format><dc:type
         rdf:resource="http://purl.org/dc/dcmitype/StillImage" /></cc:Work></rdf:RDF></metadata><defs
   id="defs3973" /><sodipodi:namedview
   pagecolor="#ffffff"
   bordercolor="#666666"
   borderopacity="1"
   objecttolerance="10"
   gridtolerance="10"
   guidetolerance="10"
   inkscape:pageopacity="0"
   inkscape:pageshadow="2"
   inkscape:window-width="1920"
   inkscape:window-height="1013"
   id="namedview3971"
   showgrid="false"
   inkscape:zoom="1.8437465"
   inkscape:cx="256.00049"
   inkscape:cy="342.78031"
   inkscape:window-x="-9"
   inkscape:window-y="-9"
   inkscape:window-maximized="1"
   inkscape:current-layer="Capa_1" />







<path
   style="fill:#f0bdd5"
   d="M 400.309,315.173 264.67898,267.74163 345.188,145.528 c 15.984,-22.001 44.318,-31.207 70.181,-22.803 l 60.758,19.741 c 12.358,4.015 18.006,18.289 11.742,29.673 l -7.226,13.133 c -3.638,6.611 -0.938,14.92 5.891,18.13 l 13.565,6.376 c 11.759,5.528 15.58,20.395 7.942,30.908 L 470.49,292.37 c -15.984,22 -44.317,31.206 -70.181,22.803 z"
   id="path3918"
   inkscape:connector-curvature="0"
   sodipodi:nodetypes="cccccccccccc" />

<path
   style="opacity:0.3;fill:#ffffff;enable-background:new"
   d="M 338.624,276.823 277.15358,262.86026 317.826,212.811 c 10.033,-9.003 23.288,-13.553 36.735,-12.613 l 36.636,2.562 c 5.196,0.363 7.887,6.374 4.697,10.492 l -4.459,5.756 c -2.619,3.381 -1.008,8.337 3.097,9.533 l 6.991,2.036 c 5.001,1.456 6.358,7.901 2.367,11.249 l -28.133,23.607 c -10.326,8.667 -23.724,12.776 -37.133,11.39 z"
   id="path3922"
   inkscape:connector-curvature="0"
   sodipodi:nodetypes="cccccccccccc" />


<g
   style="opacity:0.05"
   id="g3938"
   transform="translate(2.7118695,2.7118693)">
	
	
	
	
	<path
   d="m 429.601,219.379 c -3.162,0 -6.102,-2.015 -7.131,-5.185 -1.28,-3.939 0.876,-8.17 4.815,-9.45 l 22.143,-7.195 c 3.938,-1.282 8.17,0.875 9.45,4.815 1.28,3.939 -0.876,8.17 -4.815,9.45 l -22.144,7.195 c -0.769,0.252 -1.55,0.37 -2.318,0.37 z"
   id="path3936"
   inkscape:connector-curvature="0" />
</g>

</svg>